<svg width="125" height="45" viewBox="0 0 125 45" fill="none" xmlns="http://www.w3.org/2000/svg">
<path d="M-0.0085935 35V0.699998H7.44141V14.3H22.6414V0.699998H30.0914V35H22.6414V20.6H7.44141V35H-0.0085935ZM49.1867 35.6C46.3201 35.6 43.8867 35.1167 41.8867 34.15C39.8867 33.15 38.3701 31.6333 37.3367 29.6C36.3034 27.5333 35.7867 24.95 35.7867 21.85C35.7867 18.6833 36.3034 16.1 37.3367 14.1C38.3701 12.0667 39.8867 10.5667 41.8867 9.6C43.8867 8.6 46.3201 8.1 49.1867 8.1C52.1201 8.1 54.5701 8.6 56.5367 9.6C58.5367 10.5667 60.0534 12.0667 61.0867 14.1C62.1201 16.1 62.6367 18.6833 62.6367 21.85C62.6367 24.95 62.1201 27.5333 61.0867 29.6C60.0534 31.6333 58.5367 33.15 56.5367 34.15C54.5701 35.1167 52.1201 35.6 49.1867 35.6ZM49.1867 30.2C50.7201 30.2 51.9367 29.9167 52.8367 29.35C53.7701 28.7833 54.4534 27.9167 54.8867 26.75C55.3201 25.5833 55.5367 24.15 55.5367 22.45V21.25C55.5367 19.55 55.3201 18.1167 54.8867 16.95C54.4534 15.7833 53.7701 14.9167 52.8367 14.35C51.9367 13.75 50.7201 13.45 49.1867 13.45C47.6867 13.45 46.4701 13.75 45.5367 14.35C44.6367 14.9167 43.9701 15.7833 43.5367 16.95C43.1034 18.1167 42.8867 19.55 42.8867 21.25V22.45C42.8867 24.15 43.1034 25.5833 43.5367 26.75C43.9701 27.9167 44.6367 28.7833 45.5367 29.35C46.4701 29.9167 47.6867 30.2 49.1867 30.2ZM67.7508 35V8.7H73.5008L74.0508 12.3H74.4008C75.0008 11.4333 75.7174 10.6833 76.5508 10.05C77.4174 9.41667 78.3841 8.93333 79.4508 8.6C80.5174 8.26667 81.6841 8.1 82.9508 8.1C84.6841 8.1 86.2008 8.41666 87.5008 9.05C88.8008 9.68333 89.8008 10.6833 90.5008 12.05C91.2341 13.4167 91.6008 15.2 91.6008 17.4V35H84.6508V18.5C84.6508 17.6667 84.5508 16.9667 84.3508 16.4C84.1508 15.8 83.8508 15.3167 83.4508 14.95C83.0841 14.55 82.6174 14.2667 82.0508 14.1C81.4841 13.9333 80.8508 13.85 80.1508 13.85C79.1174 13.85 78.1841 14.1 77.3508 14.6C76.5174 15.1 75.8674 15.7833 75.4008 16.65C74.9341 17.5167 74.7008 18.5167 74.7008 19.65V35H67.7508ZM102.129 44.4C100.962 44.4 99.8622 44.15 98.8289 43.65C97.7956 43.1833 96.9622 42.4833 96.3289 41.55C95.6956 40.6167 95.3789 39.5 95.3789 38.2C95.3789 36.7333 95.7956 35.5667 96.6289 34.7C97.4956 33.8 98.4622 33.1333 99.5289 32.7C98.7622 32.2667 98.1289 31.7 97.6289 31C97.1622 30.3 96.9289 29.4833 96.9289 28.55C96.9289 27.25 97.3956 26.2 98.3289 25.4C99.2956 24.5667 100.396 24.0333 101.629 23.8C100.396 23.0333 99.4289 22.0667 98.7289 20.9C98.0622 19.7 97.7289 18.3667 97.7289 16.9C97.7289 15 98.1956 13.4 99.1289 12.1C100.096 10.8 101.462 9.81667 103.229 9.15C105.029 8.45 107.146 8.1 109.579 8.1C110.546 8.1 111.446 8.15 112.279 8.25C113.146 8.35 113.929 8.51667 114.629 8.75C115.862 8.01666 116.696 7.21666 117.129 6.35C117.596 5.45 117.846 4.73333 117.879 4.2H124.329C124.329 5.43333 124.096 6.5 123.629 7.4C123.196 8.3 122.562 9.05 121.729 9.65C120.896 10.2167 119.896 10.6333 118.729 10.9C119.596 11.6333 120.262 12.5167 120.729 13.55C121.196 14.5833 121.429 15.7 121.429 16.9C121.429 18.7667 120.979 20.3667 120.079 21.7C119.179 23 117.896 24 116.229 24.7C114.596 25.4 112.629 25.75 110.329 25.75H106.329C105.529 25.75 104.929 25.9 104.529 26.2C104.129 26.4667 103.929 26.8667 103.929 27.4C103.929 27.8333 104.096 28.2167 104.429 28.55C104.796 28.85 105.379 29 106.179 29H117.129C119.329 29 121.079 29.6833 122.379 31.05C123.712 32.3833 124.379 34.1 124.379 36.2C124.379 37.8 123.962 39.2167 123.129 40.45C122.296 41.6833 121.146 42.65 119.679 43.35C118.212 44.05 116.529 44.4 114.629 44.4H102.129ZM105.029 39.75H114.279C114.879 39.75 115.412 39.6333 115.879 39.4C116.346 39.2 116.712 38.9 116.979 38.5C117.246 38.1333 117.379 37.7 117.379 37.2C117.379 36.3333 117.112 35.6833 116.579 35.25C116.046 34.8167 115.379 34.6 114.579 34.6H105.029C104.229 34.6 103.562 34.8333 103.029 35.3C102.529 35.7667 102.279 36.3833 102.279 37.15C102.279 37.9167 102.529 38.5333 103.029 39C103.562 39.5 104.229 39.75 105.029 39.75ZM109.579 21.25C111.212 21.25 112.446 20.8833 113.279 20.15C114.146 19.3833 114.579 18.3 114.579 16.9C114.579 15.5 114.146 14.4333 113.279 13.7C112.446 12.9333 111.212 12.55 109.579 12.55C107.979 12.55 106.746 12.9333 105.879 13.7C105.046 14.4333 104.629 15.5 104.629 16.9C104.629 17.8 104.812 18.5833 105.179 19.25C105.546 19.9167 106.096 20.4167 106.829 20.75C107.562 21.0833 108.479 21.25 109.579 21.25Z" fill="white"/>
</svg>
