<svg width="37" height="30" viewBox="0 0 37 30" fill="none" xmlns="http://www.w3.org/2000/svg">
<path d="M36.4142 16.4142C37.1953 15.6332 37.1953 14.3668 36.4142 13.5858L23.6863 0.857865C22.9052 0.0768167 21.6389 0.0768168 20.8579 0.857866C20.0768 1.63891 20.0768 2.90524 20.8579 3.68629L32.1716 15L20.8579 26.3137C20.0768 27.0948 20.0768 28.3611 20.8579 29.1421C21.6389 29.9232 22.9052 29.9232 23.6863 29.1421L36.4142 16.4142ZM2 13C0.895431 13 -9.65645e-08 13.8954 0 15C9.65645e-08 16.1046 0.895432 17 2 17L2 13ZM35 13L2 13L2 17L35 17L35 13Z" fill="black"/>
</svg>
